<svg width="90" height="47" viewBox="0 0 90 47" fill="none" xmlns="http://www.w3.org/2000/svg">
<path d="M7.96713 1.2C9.45513 1.2 10.7431 1.448 11.8311 1.944C12.9351 2.44 13.7831 3.144 14.3751 4.056C14.9671 4.968 15.2631 6.048 15.2631 7.296C15.2631 8.528 14.9671 9.608 14.3751 10.536C13.7831 11.448 12.9351 12.152 11.8311 12.648C10.7431 13.128 9.45513 13.368 7.96713 13.368H4.58313V18H0.695125V1.2H7.96713ZM7.75113 10.2C8.91913 10.2 9.80713 9.952 10.4151 9.456C11.0231 8.944 11.3271 8.224 11.3271 7.296C11.3271 6.352 11.0231 5.632 10.4151 5.136C9.80713 4.624 8.91913 4.368 7.75113 4.368H4.58313V10.2H7.75113ZM33.4469 1.2V18H29.5589V11.112H21.9269V18H18.0389V1.2H21.9269V7.824H29.5589V1.2H33.4469ZM45.5577 18.288C43.8137 18.288 42.2377 17.912 40.8297 17.16C39.4377 16.408 38.3417 15.376 37.5417 14.064C36.7577 12.736 36.3657 11.248 36.3657 9.6C36.3657 7.952 36.7577 6.472 37.5417 5.16C38.3417 3.832 39.4377 2.792 40.8297 2.04C42.2377 1.288 43.8137 0.912 45.5577 0.912C47.3017 0.912 48.8697 1.288 50.2617 2.04C51.6537 2.792 52.7497 3.832 53.5497 5.16C54.3497 6.472 54.7497 7.952 54.7497 9.6C54.7497 11.248 54.3497 12.736 53.5497 14.064C52.7497 15.376 51.6537 16.408 50.2617 17.16C48.8697 17.912 47.3017 18.288 45.5577 18.288ZM45.5577 14.976C46.5497 14.976 47.4457 14.752 48.2457 14.304C49.0457 13.84 49.6697 13.2 50.1177 12.384C50.5817 11.568 50.8137 10.64 50.8137 9.6C50.8137 8.56 50.5817 7.632 50.1177 6.816C49.6697 6 49.0457 5.368 48.2457 4.92C47.4457 4.456 46.5497 4.224 45.5577 4.224C44.5657 4.224 43.6697 4.456 42.8697 4.92C42.0697 5.368 41.4377 6 40.9737 6.816C40.5257 7.632 40.3017 8.56 40.3017 9.6C40.3017 10.64 40.5257 11.568 40.9737 12.384C41.4377 13.2 42.0697 13.84 42.8697 14.304C43.6697 14.752 44.5657 14.976 45.5577 14.976ZM60.9173 4.368H55.5413V1.2H70.1813V4.368H64.8053V18H60.9173V4.368ZM80.1749 18.288C78.4309 18.288 76.8549 17.912 75.4469 17.16C74.0549 16.408 72.9589 15.376 72.1589 14.064C71.3749 12.736 70.9829 11.248 70.9829 9.6C70.9829 7.952 71.3749 6.472 72.1589 5.16C72.9589 3.832 74.0549 2.792 75.4469 2.04C76.8549 1.288 78.4309 0.912 80.1749 0.912C81.9189 0.912 83.4869 1.288 84.8789 2.04C86.2709 2.792 87.3669 3.832 88.1669 5.16C88.9669 6.472 89.3669 7.952 89.3669 9.6C89.3669 11.248 88.9669 12.736 88.1669 14.064C87.3669 15.376 86.2709 16.408 84.8789 17.16C83.4869 17.912 81.9189 18.288 80.1749 18.288ZM80.1749 14.976C81.1669 14.976 82.0629 14.752 82.8629 14.304C83.6629 13.84 84.2869 13.2 84.7349 12.384C85.1989 11.568 85.4309 10.64 85.4309 9.6C85.4309 8.56 85.1989 7.632 84.7349 6.816C84.2869 6 83.6629 5.368 82.8629 4.92C82.0629 4.456 81.1669 4.224 80.1749 4.224C79.1829 4.224 78.2869 4.456 77.4869 4.92C76.6869 5.368 76.0549 6 75.5909 6.816C75.1429 7.632 74.9189 8.56 74.9189 9.6C74.9189 10.64 75.1429 11.568 75.5909 12.384C76.0549 13.2 76.6869 13.84 77.4869 14.304C78.2869 14.752 79.1829 14.976 80.1749 14.976Z" fill="white"/>
<path d="M15.5224 40.376L11.9704 45.824H8.73044L11.2264 41.672H4.09844V39.08H11.2024L8.73044 34.976H11.9704L15.5224 40.376ZM29.5579 33.368H24.1819V30.2H38.8219V33.368H33.4459V47H29.5579V33.368ZM53.9219 43.88V47H40.9139V30.2H53.6099V33.32H44.7779V36.968H52.5779V39.992H44.7779V43.88H53.9219ZM67.4354 47L63.3794 41.168L59.3954 47H54.9314L61.1474 38.456L55.2434 30.2H59.6594L63.5234 35.648L67.3154 30.2H71.5154L65.6594 38.312L71.9234 47H67.4354ZM76.7376 33.368H71.3616V30.2H86.0016V33.368H80.6256V47H76.7376V33.368Z" fill="#2A32FF"/>
</svg>
